# xmcd
#
# Track frame offsets: 
#        150
#        25680
#        48556
#        65117
#        101509
#        117736
#        134867
#        150573
#        187569
#        202829
#        229196
#        248775
#        268903
#        289139
#        332880
#
# Disc length: 4781 seconds
#
# Revision: 0
# Processed by: cddbd v1.5.2PL0 Copyright (c) Steve Scherf et al.
# Submitted via: ExactAudioCopy v1.1
#
DISCID=e112ab0f
DTITLE=Various Artist - Rhythm and Blues Now!  CD1
DYEAR=2016
DGENRE=Blues
TTITLE0=УАИ-71 - Блюз о Родном Городе
TTITLE1=Ринат Билялов - Nobody Knows When You
TTITLE2=УАИ-71 - Blowing In The Winds
TTITLE3=Outrider - Dengue Woman
TTITLE4=Outrider - Crossroad Blues
TTITLE5=Синие Одуванчики - Bright Lights Big City
TTITLE6=Outrider - Circus
TTITLE7=Rhythm and Blues Trio - Route 66
TTITLE8=Ринат Билялов - I Believe To My Soul
TTITLE9=Rhythm and Blues Trio - Gimme One Reason
TTITLE10=УАИ-71 - Take Me To The Station
TTITLE11=УАИ-71 - Boom Boom
TTITLE12=Синие Одуванчики - Wrote The Song For Everyone
TTITLE13=Rhythm and Blues Trio - When I First Meet You Baby
TTITLE14=УАИ-71 - Три Окна
EXTD=
EXTT0=
EXTT1=
EXTT2=
EXTT3=
EXTT4=
EXTT5=
EXTT6=
EXTT7=
EXTT8=
EXTT9=
EXTT10=
EXTT11=
EXTT12=
EXTT13=
EXTT14=
PLAYORDER=
